<?xml version="1.0" encoding="utf-8"?>
<!-- Generator: Adobe Illustrator 27.2.0, SVG Export Plug-In . SVG Version: 6.00 Build 0)  -->
<svg version="1.1" id="Layer_1" xmlns="http://www.w3.org/2000/svg" xmlns:xlink="http://www.w3.org/1999/xlink" x="0px" y="0px"
	 viewBox="0 0 326.3 118.5" style="enable-background:new 0 0 326.3 118.5;" xml:space="preserve">
<style type="text/css">
	.st0{fill:url(#SVGID_1_);}
	.st1{fill:url(#SVGID_00000058563076511114275390000008338896125351086768_);}
	.st2{fill:#FDE021;}
	.st3{fill:#FFC878;}
	.st4{fill:#5B7E96;}
</style>
<g>
	<g>
		<radialGradient id="SVGID_1_" cx="40.1763" cy="46.1775" r="29.2286" gradientUnits="userSpaceOnUse">
			<stop  offset="0" style="stop-color:#FFFFFF"/>
			<stop  offset="0.123" style="stop-color:#F9FDFC"/>
			<stop  offset="0.2804" style="stop-color:#EAF6F5"/>
			<stop  offset="0.4566" style="stop-color:#CFEAE9"/>
			<stop  offset="0.6464" style="stop-color:#ABDAD8"/>
			<stop  offset="0.8449" style="stop-color:#7CC6C3"/>
			<stop  offset="0.9838" style="stop-color:#57B6B2"/>
		</radialGradient>
		<path class="st0" d="M40.72,16.95l12.82,12.82l-6.29,23.48l-23.48,6.29L10.95,46.72c0.14,7.3,2.98,14.55,8.55,20.12
			c11.42,11.42,29.93,11.42,41.34,0c11.42-11.42,11.42-29.93,0-41.34C55.27,19.93,48.02,17.09,40.72,16.95z"/>
		
			<linearGradient id="SVGID_00000134210194038486264810000006057491393369427350_" gradientUnits="userSpaceOnUse" x1="15.4672" y1="44.9942" x2="45.2969" y2="27.7721">
			<stop  offset="0" style="stop-color:#FDE021"/>
			<stop  offset="1" style="stop-color:#FFA400"/>
		</linearGradient>
		<polygon style="fill:url(#SVGID_00000134210194038486264810000006057491393369427350_);" points="13.16,41 17.77,23.78 35,19.16 
			47.6,31.77 42.99,48.99 25.77,53.61 		"/>
		<polygon class="st2" points="0,26.88 1.83,20.06 8.64,18.24 13.62,23.23 11.8,30.04 4.99,31.86 		"/>
		<polygon class="st3" points="9.45,12.34 12.06,2.61 21.79,0 28.92,7.12 26.31,16.86 16.58,19.46 		"/>
		<path class="st4" d="M92.92,25.46v37.08h21.66l-1.14,5.64H86.62V25.46H92.92z"/>
		<path class="st4" d="M143.08,63.02c0,1.92-0.44,3.26-1.32,4.02c-0.88,0.76-2.48,1.14-4.8,1.14h-9c-4.2,0-7.21-0.77-9.03-2.31
			c-1.82-1.54-2.73-3.85-2.73-6.93v-1.32c0-3.36,0.99-5.76,2.97-7.2c1.98-1.44,5.07-2.16,9.27-2.16c2.4,0,4.28,0.19,5.64,0.57
			c1.36,0.38,2.36,0.79,3,1.23v-1.8c0-1-0.07-1.87-0.21-2.61c-0.14-0.74-0.48-1.36-1.02-1.86c-0.54-0.5-1.32-0.88-2.34-1.14
			c-1.02-0.26-2.41-0.39-4.17-0.39c-1.68,0-3.47,0.01-5.37,0.03c-1.9,0.02-3.53,0.05-4.89,0.09l1.14-5.22
			c1.12-0.04,2.5-0.07,4.14-0.09c1.64-0.02,3.3-0.03,4.98-0.03c4.84,0,8.34,0.85,10.5,2.55c2.16,1.7,3.24,4.21,3.24,7.53V63.02z
			 M122.08,58.88c0,1.4,0.42,2.45,1.26,3.15c0.84,0.7,2.38,1.05,4.62,1.05h9.12v-5.52c0-0.76-0.08-1.42-0.24-1.98
			c-0.16-0.56-0.48-1.01-0.96-1.35c-0.48-0.34-1.18-0.59-2.1-0.75c-0.92-0.16-2.14-0.24-3.66-0.24h-1.38
			c-1.32,0-2.41,0.07-3.27,0.21c-0.86,0.14-1.54,0.38-2.04,0.72c-0.5,0.34-0.85,0.79-1.05,1.35c-0.2,0.56-0.3,1.26-0.3,2.1V58.88z"
			/>
		<path class="st4" d="M148.12,68.18v-21.9c0-3.68,1.05-6.28,3.15-7.8c2.1-1.52,5.21-2.28,9.33-2.28c2.08,0,3.96,0.31,5.64,0.93
			c1.68,0.62,2.92,1.47,3.72,2.55c0.8-1.08,2.04-1.93,3.72-2.55c1.68-0.62,3.56-0.93,5.64-0.93c4.12,0,7.24,0.76,9.36,2.28
			c2.12,1.52,3.18,4.12,3.18,7.8v21.9h-6.3V47.54c0-1-0.05-1.88-0.15-2.64c-0.1-0.76-0.36-1.4-0.78-1.92
			c-0.42-0.52-1.04-0.91-1.86-1.17c-0.82-0.26-1.97-0.39-3.45-0.39c-1.36,0-2.44,0.11-3.24,0.33c-0.8,0.22-1.42,0.56-1.86,1.02
			c-0.44,0.46-0.73,1.02-0.87,1.68c-0.14,0.66-0.21,1.41-0.21,2.25v21.48h-6.3V47.54c0-1-0.05-1.88-0.15-2.64
			c-0.1-0.76-0.36-1.4-0.78-1.92c-0.42-0.52-1.04-0.91-1.86-1.17c-0.82-0.26-1.97-0.39-3.45-0.39c-1.44,0-2.58,0.13-3.42,0.39
			c-0.84,0.26-1.46,0.65-1.86,1.17c-0.4,0.52-0.65,1.16-0.75,1.92c-0.1,0.76-0.15,1.64-0.15,2.64v20.64H148.12z"/>
		<path class="st4" d="M203.86,62.96h18.9l-1.08,5.22H196.3v-4.92l18.06-20.88h-18l1.08-5.22h24.42v4.92L203.86,62.96z"/>
		<path class="st4" d="M231.82,54.98c0,1.68,0.09,3.04,0.27,4.08c0.18,1.04,0.54,1.86,1.08,2.46c0.54,0.6,1.29,1.01,2.25,1.23
			c0.96,0.22,2.24,0.33,3.84,0.33c1.16,0,2.63,0,4.41,0c1.78,0,4.09-0.04,6.93-0.12l-1.08,5.22c-1.24,0.04-2.3,0.07-3.18,0.09
			c-0.88,0.02-1.69,0.03-2.43,0.03c-0.74,0-1.47,0-2.19,0s-1.54,0-2.46,0c-2.84,0-5.15-0.33-6.93-0.99c-1.78-0.66-3.18-1.6-4.2-2.82
			c-1.02-1.22-1.71-2.7-2.07-4.44c-0.36-1.74-0.54-3.67-0.54-5.79V50.9c0-2.28,0.19-4.33,0.57-6.15c0.38-1.82,1.08-3.36,2.1-4.62
			c1.02-1.26,2.44-2.23,4.26-2.91c1.82-0.68,4.19-1.02,7.11-1.02c2.68,0,4.87,0.31,6.57,0.93c1.7,0.62,3.04,1.46,4.02,2.52
			c0.98,1.06,1.65,2.28,2.01,3.66c0.36,1.38,0.54,2.81,0.54,4.29v0.9c0,1.44-0.08,2.58-0.24,3.42c-0.16,0.84-0.42,1.49-0.78,1.95
			c-0.36,0.46-0.81,0.76-1.35,0.9c-0.54,0.14-1.19,0.21-1.95,0.21H231.82z M239.26,41.18c-1.6,0-2.88,0.12-3.84,0.36
			c-0.96,0.24-1.71,0.69-2.25,1.35c-0.54,0.66-0.9,1.57-1.08,2.73c-0.18,1.16-0.27,2.66-0.27,4.5h14.94v-2.04
			c0-1.32-0.11-2.43-0.33-3.33c-0.22-0.9-0.62-1.61-1.2-2.13c-0.58-0.52-1.35-0.89-2.31-1.11
			C241.96,41.29,240.74,41.18,239.26,41.18z"/>
		<path class="st4" d="M270.1,68.18c-2.64,0-4.86-0.27-6.66-0.81s-3.24-1.41-4.32-2.61c-1.08-1.2-1.85-2.75-2.31-4.65
			c-0.46-1.9-0.69-4.21-0.69-6.93V50.9c0-2.44,0.2-4.57,0.6-6.39c0.4-1.82,1.12-3.35,2.16-4.59c1.04-1.24,2.45-2.17,4.23-2.79
			c1.78-0.62,4.03-0.93,6.75-0.93c1.92,0,3.63,0.21,5.13,0.63c1.5,0.42,2.63,0.97,3.39,1.65V23.6h6.3v39.42
			c0,1.84-0.42,3.16-1.26,3.96c-0.84,0.8-2.46,1.2-4.86,1.2H270.1z M278.38,63.02V49.04c0-1.56-0.12-2.84-0.36-3.84
			c-0.24-1-0.66-1.79-1.26-2.37c-0.6-0.58-1.42-0.97-2.46-1.17c-1.04-0.2-2.36-0.3-3.96-0.3c-1.68,0-3.03,0.13-4.05,0.39
			c-1.02,0.26-1.81,0.74-2.37,1.44c-0.56,0.7-0.93,1.67-1.11,2.91c-0.18,1.24-0.27,2.84-0.27,4.8v2.28c0,2.08,0.09,3.76,0.27,5.04
			c0.18,1.28,0.55,2.28,1.11,3c0.56,0.72,1.36,1.2,2.4,1.44c1.04,0.24,2.42,0.36,4.14,0.36H278.38z"/>
		<path class="st4" d="M295.3,54.98c0,1.68,0.09,3.04,0.27,4.08c0.18,1.04,0.54,1.86,1.08,2.46c0.54,0.6,1.29,1.01,2.25,1.23
			c0.96,0.22,2.24,0.33,3.84,0.33c1.16,0,2.63,0,4.41,0c1.78,0,4.09-0.04,6.93-0.12L313,68.18c-1.24,0.04-2.3,0.07-3.18,0.09
			c-0.88,0.02-1.69,0.03-2.43,0.03c-0.74,0-1.47,0-2.19,0s-1.54,0-2.46,0c-2.84,0-5.15-0.33-6.93-0.99c-1.78-0.66-3.18-1.6-4.2-2.82
			c-1.02-1.22-1.71-2.7-2.07-4.44c-0.36-1.74-0.54-3.67-0.54-5.79V50.9c0-2.28,0.19-4.33,0.57-6.15c0.38-1.82,1.08-3.36,2.1-4.62
			c1.02-1.26,2.44-2.23,4.26-2.91c1.82-0.68,4.19-1.02,7.11-1.02c2.68,0,4.87,0.31,6.57,0.93c1.7,0.62,3.04,1.46,4.02,2.52
			c0.98,1.06,1.65,2.28,2.01,3.66c0.36,1.38,0.54,2.81,0.54,4.29v0.9c0,1.44-0.08,2.58-0.24,3.42c-0.16,0.84-0.42,1.49-0.78,1.95
			c-0.36,0.46-0.81,0.76-1.35,0.9c-0.54,0.14-1.19,0.21-1.95,0.21H295.3z M302.74,41.18c-1.6,0-2.88,0.12-3.84,0.36
			c-0.96,0.24-1.71,0.69-2.25,1.35c-0.54,0.66-0.9,1.57-1.08,2.73c-0.18,1.16-0.27,2.66-0.27,4.5h14.94v-2.04
			c0-1.32-0.11-2.43-0.33-3.33c-0.22-0.9-0.62-1.61-1.2-2.13c-0.58-0.52-1.35-0.89-2.31-1.11
			C305.44,41.29,304.22,41.18,302.74,41.18z"/>
		<path class="st4" d="M326.3,28.52c0,0.91-0.09,1.68-0.28,2.31c-0.19,0.63-0.48,1.14-0.88,1.52c-0.4,0.38-0.93,0.66-1.57,0.84
			c-0.64,0.17-1.42,0.26-2.33,0.26c-0.91,0-1.69-0.09-2.33-0.26c-0.64-0.17-1.16-0.45-1.57-0.84c-0.4-0.38-0.7-0.89-0.88-1.52
			c-0.19-0.63-0.28-1.4-0.28-2.31c0-0.91,0.09-1.68,0.28-2.31c0.19-0.63,0.48-1.14,0.88-1.52c0.4-0.38,0.93-0.66,1.57-0.84
			c0.64-0.17,1.42-0.26,2.33-0.26c0.91,0,1.69,0.09,2.33,0.26c0.64,0.17,1.16,0.45,1.57,0.84c0.4,0.38,0.7,0.89,0.88,1.52
			C326.2,26.84,326.3,27.61,326.3,28.52z M317.6,28.52c0,0.73,0.05,1.34,0.16,1.82c0.11,0.48,0.3,0.86,0.58,1.14
			c0.28,0.28,0.65,0.47,1.12,0.58c0.47,0.11,1.06,0.16,1.78,0.16c0.72,0,1.31-0.05,1.78-0.16c0.47-0.11,0.84-0.3,1.12-0.58
			c0.28-0.28,0.47-0.65,0.58-1.14c0.11-0.48,0.16-1.09,0.16-1.82c0-0.73-0.05-1.33-0.16-1.81c-0.11-0.47-0.3-0.85-0.58-1.14
			c-0.28-0.28-0.65-0.48-1.12-0.59c-0.47-0.11-1.06-0.16-1.78-0.16c-0.72,0-1.31,0.05-1.78,0.16c-0.47,0.11-0.84,0.3-1.12,0.59
			c-0.28,0.28-0.47,0.66-0.58,1.14C317.66,27.19,317.6,27.79,317.6,28.52z M323.39,27.74c0,0.37-0.06,0.67-0.18,0.89
			c-0.12,0.22-0.34,0.4-0.66,0.54l1.1,1.81h-1.52l-0.85-1.6h-0.63v1.6h-1.37v-5.06h2.46c0.55,0,0.96,0.12,1.24,0.36
			c0.28,0.24,0.41,0.63,0.41,1.16V27.74z M322.05,27.56c0-0.24-0.05-0.4-0.15-0.47c-0.1-0.07-0.3-0.11-0.6-0.11h-0.67v1.31h0.67
			c0.29,0,0.49-0.04,0.6-0.11c0.1-0.07,0.15-0.23,0.15-0.47V27.56z"/>
	</g>
	<g>
		<path class="st4" d="M93.76,110.12H90.9l-4.62-23.76h2.99l2.22,13.85c0.36,2.31,0.68,4.34,0.86,6.2c0.18-1.86,0.5-3.89,0.86-6.2
			l2.22-13.85h2.94L93.76,110.12z"/>
		<path class="st4" d="M102.58,99.22c0.09,5.2,0.91,8.64,2.99,8.64c1.49,0,2.13-0.95,3.39-3.08l1.95,1.54
			c-1.27,2.4-2.72,4.3-5.39,4.3c-3.89,0-5.7-4.53-5.7-12.22c0-8.15,2.08-12.54,5.79-12.54c3.62,0,5.52,4.39,5.52,12.72
			c0,0.27,0,0.45,0,0.63H102.58z M105.52,88.63c-1.54,0-2.72,2.4-2.9,7.92h5.7C108.19,91.98,107.33,88.63,105.52,88.63z"/>
		<path class="st4" d="M114.53,110.12V78.85l2.81-1.72v32.99H114.53z"/>
		<path class="st4" d="M136.57,110.12V92.38c0-2.85-0.63-3.85-2.08-3.85c-0.86,0-1.86,0.59-2.72,1.4v20.19h-2.81V92.38
			c0-2.85-0.63-3.85-2.08-3.85c-0.86,0-1.86,0.59-2.72,1.4v20.19h-2.81V86.36h2.81v1.18c0.95-0.91,2.13-1.67,3.62-1.67
			c1.63,0,2.49,0.68,3.21,1.95c1.4-1.22,2.67-1.95,4.39-1.95c2.85,0,3.98,2.4,3.98,6.34v17.92H136.57z"/>
		<path class="st4" d="M150.24,110.12v-1.13c-1,0.95-2.13,1.63-3.48,1.63c-3.08,0-4.53-2.81-4.53-7.92c0-5.39,1.81-7.87,5.25-7.87
			c1.13,0,1.99,0.32,2.76,0.86v-3.89c0-2.22-0.77-3.17-2.31-3.17c-1.04,0-1.99,0.68-3.35,2.08l-1.67-2.13
			c1.67-1.67,3.39-2.72,5.2-2.72c3.08,0,4.93,1.18,4.93,5.7v18.56H150.24z M150.24,98.31c-0.81-0.5-1.31-0.81-2.67-0.81
			c-1.99,0-2.49,1.95-2.49,5.11c0,2.85,0.5,5.34,2.22,5.34c0.91,0,2.08-0.54,2.94-1.45V98.31z"/>
		<path class="st4" d="M164.77,110.12V92.38c0-2.85-0.68-3.85-2.31-3.85c-1,0-2.08,0.59-2.94,1.4v20.19h-2.81V86.36h2.81v1.18
			c0.95-0.91,2.13-1.67,3.85-1.67c3.08,0,4.21,2.4,4.21,6.34v17.92H164.77z"/>
		<path class="st4" d="M178.44,110.12v-1.13c-1,0.95-2.13,1.63-3.49,1.63c-3.08,0-4.53-2.81-4.53-7.92c0-5.39,1.81-7.87,5.25-7.87
			c1.13,0,1.99,0.32,2.76,0.86v-3.89c0-2.22-0.77-3.17-2.31-3.17c-1.04,0-1.99,0.68-3.35,2.08l-1.67-2.13
			c1.67-1.67,3.39-2.72,5.2-2.72c3.08,0,4.93,1.18,4.93,5.7v18.56H178.44z M178.44,98.31c-0.82-0.5-1.31-0.81-2.67-0.81
			c-1.99,0-2.49,1.95-2.49,5.11c0,2.85,0.5,5.34,2.22,5.34c0.91,0,2.08-0.54,2.94-1.45V98.31z"/>
		<path class="st4" d="M189.12,110.62c-2.81,0-4.44-2.08-5.25-4.89l2.4-1.4c0.77,2.44,1.58,3.58,2.9,3.58
			c1.67,0,2.53-1.27,2.53-2.85c0-2.04-0.36-3.3-3.35-5.88c-2.76-2.4-4.25-4.3-4.25-7.56c0-3.21,1.99-5.75,5.02-5.75
			c2.71,0,4.16,1.77,5.02,4.3l-2.53,1.4c-0.59-1.67-1.27-2.99-2.62-2.99c-1.31,0-2.13,1.09-2.13,2.76c0,1.76,0.5,2.94,3.3,5.34
			c2.99,2.53,4.3,4.8,4.3,8.1C194.46,108.04,192.29,110.62,189.12,110.62z"/>
		<path class="st4" d="M199.26,99.22c0.09,5.2,0.91,8.64,2.99,8.64c1.49,0,2.13-0.95,3.39-3.08l1.95,1.54
			c-1.27,2.4-2.72,4.3-5.39,4.3c-3.89,0-5.7-4.53-5.7-12.22c0-8.15,2.08-12.54,5.79-12.54c3.62,0,5.52,4.39,5.52,12.72
			c0,0.27,0,0.45,0,0.63H199.26z M202.2,88.63c-1.54,0-2.72,2.4-2.9,7.92h5.7C204.87,91.98,204.01,88.63,202.2,88.63z"/>
		<path class="st4" d="M225.42,110.12v-1.13c-1,0.95-2.13,1.63-3.49,1.63c-3.08,0-4.53-2.81-4.53-7.92c0-5.39,1.81-7.87,5.25-7.87
			c1.13,0,1.99,0.32,2.76,0.86v-3.89c0-2.22-0.77-3.17-2.31-3.17c-1.04,0-1.99,0.68-3.35,2.08l-1.67-2.13
			c1.67-1.67,3.39-2.72,5.2-2.72c3.08,0,4.93,1.18,4.93,5.7v18.56H225.42z M225.42,98.31c-0.82-0.5-1.31-0.81-2.67-0.81
			c-1.99,0-2.49,1.95-2.49,5.11c0,2.85,0.5,5.34,2.22,5.34c0.91,0,2.08-0.54,2.94-1.45V98.31z"/>
		<path class="st4" d="M232.12,110.12V78.85l2.81-1.72v32.99H232.12z"/>
		<path class="st4" d="M243.93,79.94c-1.04,0-1.77,0.68-1.77,2.22v4.21h2.99v2.58h-2.99v21.18h-2.71V88.94h-1.99v-2.58h1.99v-3.98
			c0-3.53,1.63-5.11,4.12-5.11c1,0,1.63,0.14,2.22,0.36v2.62C245.25,80.07,244.61,79.94,243.93,79.94z"/>
		<path class="st4" d="M254.34,110.12v-1.13c-1,0.95-2.13,1.63-3.49,1.63c-3.08,0-4.53-2.81-4.53-7.92c0-5.39,1.81-7.87,5.25-7.87
			c1.13,0,1.99,0.32,2.76,0.86v-3.89c0-2.22-0.77-3.17-2.31-3.17c-1.04,0-1.99,0.68-3.35,2.08l-1.67-2.13
			c1.67-1.67,3.39-2.72,5.2-2.72c3.08,0,4.93,1.18,4.93,5.7v18.56H254.34z M254.34,98.31c-0.82-0.5-1.31-0.81-2.67-0.81
			c-1.99,0-2.49,1.95-2.49,5.11c0,2.85,0.5,5.34,2.22,5.34c0.91,0,2.08-0.54,2.94-1.45V98.31z"/>
		<path class="st4" d="M259.95,95.01v-2.9h7.56v2.9H259.95z"/>
		<path class="st4" d="M277.06,110.03c-0.81,0.36-1.67,0.59-2.72,0.59c-2.58,0-3.44-1.86-3.44-4.71V88.94h-1.99v-2.58h1.99v-7.51
			l2.72-1.72v9.23h3.39v2.58h-3.39v16.88c0,1.36,0.54,2.08,1.31,2.08c0.81,0,1.45-0.14,2.44-0.63L277.06,110.03z"/>
		<path class="st4" d="M283.98,118.5h-2.81l1.81-7.6l-4.8-24.53h2.99l2.22,13.85c0.36,2.31,0.68,4.34,0.86,6.2
			c0.18-1.86,0.5-3.89,0.86-6.2l2.22-13.85h2.94L283.98,118.5z"/>
		<path class="st4" d="M297.42,110.62c-3.8,0-5.79-4.53-5.79-12.22c0-8.15,2.08-12.54,5.84-12.54c2.9,0,4.16,2.35,4.93,5.3
			l-2.49,1.27c-0.63-2.22-1.09-3.8-2.54-3.8c-1.81,0-2.9,2.94-2.9,9.73c0,5.66,0.77,9.5,3.03,9.5c1.18,0,1.72-1.04,2.72-3.62
			l2.26,1.36C301.4,108.72,299.87,110.62,297.42,110.62z"/>
		<path class="st4" d="M311.23,110.12h-2.85l-4.62-23.76h2.99l2.22,13.85c0.36,2.31,0.68,4.34,0.86,6.2c0.18-1.86,0.5-3.89,0.86-6.2
			l2.22-13.85h2.94L311.23,110.12z"/>
	</g>
</g>
</svg>
